<svg width="20" height="19" viewBox="0 0 20 19" fill="none" xmlns="http://www.w3.org/2000/svg">
<path d="M19.59 3.25063C18.8868 1.442 17.199 0.189059 15.2442 0.0245384C15.0592 0.00860254 14.8722 0 14.6826 0C12.8844 0.00437158 11.1763 0.778127 10 2.12123C8.8237 0.778127 7.11565 0.00437158 5.31741 0C5.12775 0 4.94081 0.00860254 4.75537 0.0248204C2.80077 0.189431 1.11319 1.44223 0.410033 3.25063C-0.375569 5.14359 -0.0148882 7.31207 1.34261 8.85744L9.46095 18.0906C9.59657 18.2448 9.79324 18.3333 10.0001 18.3333C10.2069 18.3333 10.4036 18.2448 10.5392 18.0906L18.6574 8.85744C20.0149 7.31207 20.3756 5.14359 19.59 3.25063Z" fill="#EDEDED"/>
</svg>
