<svg width="64" height="36" viewBox="0 0 64 36" fill="none" xmlns="http://www.w3.org/2000/svg">
<rect width="64" height="36" rx="5" fill="#1A1A1A"/>
<g clip-path="url(#clip0_8_547)">
<path fill-rule="evenodd" clip-rule="evenodd" d="M29.012 11.908C29.012 11.908 29.012 11.908 30.0216 11.908C30.3894 11.908 30.5748 12.0897 30.5748 12.5C30.5748 12.5 30.5748 12.5 30.5748 13.9541C30.5748 13.9541 30.5748 13.9541 32.5525 13.9541C32.5525 13.9541 32.5525 13.9541 32.5525 12.5C32.5525 12.0897 32.735 11.908 33.1499 11.908C33.1499 11.908 33.1499 11.908 34.1153 11.908C34.1153 11.908 34.1153 11.908 34.1153 12.8636C34.1153 12.8636 34.1153 12.8636 33.7031 12.8636L33.6561 12.9104C33.6561 12.9104 33.6561 12.9104 33.6561 17.0026C33.6561 17.0026 33.6561 17.0026 32.5525 17.0026C32.5525 17.0026 32.5525 17.0026 32.5525 14.9565C32.5525 14.9565 32.5525 14.9565 30.5748 14.9565C30.5748 14.9565 30.5748 14.9565 30.5748 17.0026C30.5748 17.0026 30.5748 17.0026 29.4711 17.0026C29.4711 17.0026 29.4711 17.0026 29.4711 12.9104C29.4711 12.9104 29.4711 12.8636 29.4241 12.8636C29.4241 12.8636 29.4241 12.8636 29.012 12.8636C29.012 12.8636 29.012 12.8636 29.012 11.908Z" fill="#EDEDED"/>
<path fill-rule="evenodd" clip-rule="evenodd" d="M37.0114 11.8171L37.0363 11.8199V12.8691L37.0114 12.8636C36.1844 12.8636 35.5399 13.5466 35.5399 14.4113C35.5399 15.3201 36.1844 16.0471 37.0114 16.0471L37.0363 16.0416V17.0908L37.0114 17.0936C35.5399 17.0936 34.345 15.9121 34.345 14.4113C34.345 12.9545 35.5399 11.8171 37.0114 11.8171Z" fill="#EDEDED"/>
<path fill-rule="evenodd" clip-rule="evenodd" d="M37.0364 11.8198L37.5481 11.8694C38.7624 12.1062 39.6779 13.1362 39.6779 14.4112C39.6779 15.7221 38.7624 16.7933 37.5481 17.0384L37.0364 17.0907V16.0415L37.5979 15.9203C38.14 15.6725 38.53 15.0914 38.53 14.4112C38.53 13.7613 38.14 13.216 37.5979 12.9847L37.0364 12.8691V11.8198Z" fill="#EDEDED"/>
<path fill-rule="evenodd" clip-rule="evenodd" d="M39.9075 11.908C39.9075 11.908 39.9075 11.908 41.4481 11.908H42.1839V12.8636H42.1148C42.0235 12.8636 41.8381 12.8636 41.4703 12.8636C41.4703 12.8636 41.4703 12.8636 41.4703 13.91C41.4703 13.91 41.4703 13.91 41.7828 13.91H42.1839V14.8188H41.9488C41.8326 14.8188 41.6777 14.8188 41.4703 14.8188C41.4703 14.8188 41.4703 14.8188 41.4703 15.9562C41.4703 16.003 41.4703 16.003 41.5173 16.003C41.5173 16.003 41.5173 16.003 41.8464 16.003H42.1839V17.0026H42.0871C41.9211 17.0026 41.5864 17.0026 40.9198 17.0026C40.552 17.0026 40.3694 16.8209 40.3694 16.4105V12.8636C40.3694 12.8636 40.3694 12.8636 39.9075 12.8636C39.9075 12.8636 39.9075 12.8636 39.9075 11.908Z" fill="#EDEDED"/>
<path fill-rule="evenodd" clip-rule="evenodd" d="M42.1838 11.908H42.206C43.2183 11.908 43.8158 12.4532 43.8158 13.2739C43.8158 13.7723 43.5862 14.0918 43.3566 14.3204C43.7715 14.5021 44.0454 14.9565 44.0454 15.4549C44.0454 16.4105 43.3096 17.0026 42.253 17.0026C42.253 17.0026 42.253 17.0026 42.2336 17.0026H42.1838V16.003H42.2972C42.6651 16.003 42.8975 15.7744 42.8975 15.4109C42.8975 15.0474 42.6651 14.8188 42.2972 14.8188C42.2972 14.8188 42.2972 14.8188 42.1949 14.8188H42.1838V13.91H42.206C42.5296 13.91 42.7121 13.6815 42.7121 13.3648C42.7121 13.0453 42.5296 12.8636 42.206 12.8636C42.206 12.8636 42.206 12.8636 42.1949 12.8636H42.1838V11.908Z" fill="#EDEDED"/>
<path fill-rule="evenodd" clip-rule="evenodd" d="M46.1614 11.908C46.1614 11.908 46.1614 11.908 46.6261 11.908H46.7119V13.3648C46.6676 13.4556 46.6206 13.5906 46.6206 13.7283C46.6206 13.7283 46.6206 13.7283 46.2527 14.7747C46.2527 14.7747 46.2527 14.7747 46.6427 14.7747H46.7119V15.7276H46.4629C46.3218 15.7276 46.1614 15.7276 45.9789 15.7276C45.9789 15.7276 45.9789 15.7276 45.6552 16.5482C45.564 16.8649 45.3814 17.0026 45.0135 17.0026C45.0135 17.0026 45.0135 17.0026 44.322 17.0026C44.322 17.0026 44.322 17.0026 44.322 16.003C44.322 16.003 44.322 16.003 44.5516 16.003C44.6456 16.003 44.6456 16.003 44.6899 15.9562C44.6899 15.9562 44.6899 15.9562 46.1614 11.908Z" fill="#EDEDED"/>
<path fill-rule="evenodd" clip-rule="evenodd" d="M46.7117 11.908H47.2649C47.2649 11.908 47.2649 11.908 48.7364 15.9562C48.7806 16.003 48.7806 16.003 48.8719 16.003C48.8719 16.003 48.8719 16.003 49.0572 16.003C49.0572 16.003 49.0572 16.003 49.0572 17.0026C49.0572 17.0026 49.0572 17.0026 48.4128 17.0026C48.0449 17.0026 47.8623 16.8649 47.7683 16.5014C47.7683 16.5014 47.7683 16.5014 47.4474 15.7276C47.4474 15.7276 47.4474 15.7276 46.8278 15.7276H46.7117V14.7747H47.1708C47.1708 14.7747 47.1708 14.7747 46.8057 13.7283C46.8057 13.5906 46.7587 13.4556 46.7117 13.3648V11.908Z" fill="#EDEDED"/>
<path fill-rule="evenodd" clip-rule="evenodd" d="M29.012 18.4565C29.012 18.4565 29.012 18.4565 33.0116 18.4565C33.3795 18.4565 33.6091 18.6383 33.6091 19.0486C33.6091 19.0486 33.6091 19.0486 33.6091 22.5047C33.6091 22.5488 33.6091 22.5488 33.6561 22.5488C33.6561 22.5488 33.6561 22.5488 34.024 22.5488C34.024 22.5488 34.024 22.5488 34.024 23.5512C34.024 23.5512 34.024 23.5512 33.0586 23.5512C32.6437 23.5512 32.4612 23.3695 32.4612 22.9591C32.4612 22.9591 32.4612 22.9591 32.4612 19.459C32.4612 19.459 32.4612 19.4121 32.4142 19.4121C32.4142 19.4121 32.4142 19.4121 30.5748 19.4121C30.5748 19.4121 30.5748 19.4121 30.5748 23.5512C30.5748 23.5512 30.5748 23.5512 29.4711 23.5512C29.4711 23.5512 29.4711 23.5512 29.4711 19.4121C29.4711 19.4121 29.4711 19.4121 29.012 19.4121C29.012 19.4121 29.012 19.4121 29.012 18.4565Z" fill="#EDEDED"/>
<path fill-rule="evenodd" clip-rule="evenodd" d="M36.92 18.366L36.9422 18.3687V19.4179L36.92 19.4124C36.0902 19.4124 35.4485 20.0954 35.4485 20.9601C35.4485 21.8689 36.0902 22.5959 36.92 22.5959L36.9422 22.5904V23.6396L36.92 23.6424C35.4485 23.6424 34.2979 22.4582 34.2979 20.9601C34.2979 19.5033 35.4485 18.366 36.92 18.366Z" fill="#EDEDED"/>
<path fill-rule="evenodd" clip-rule="evenodd" d="M36.9421 18.3687L37.4704 18.4182C38.7069 18.6551 39.5864 19.685 39.5864 20.96C39.5864 22.2709 38.7069 23.3421 37.4704 23.5872L36.9421 23.6396V22.5903L37.5258 22.4692C38.0762 22.2213 38.4386 21.6403 38.4386 20.96C38.4386 20.3101 38.0762 19.7649 37.5258 19.5335L36.9421 19.4179V18.3687Z" fill="#EDEDED"/>
<path fill-rule="evenodd" clip-rule="evenodd" d="M39.8162 18.4565C39.8162 18.4565 39.8162 18.4565 40.8285 18.4565C41.1964 18.4565 41.379 18.6383 41.379 19.0486C41.379 19.0486 41.379 19.0486 41.379 22.5047C41.379 22.5488 41.379 22.5488 41.426 22.5488C41.426 22.5488 41.426 22.5488 42.7592 22.5488C42.7592 22.5488 42.7592 22.5488 42.7592 18.4565C42.7592 18.4565 42.7592 18.4565 43.8628 18.4565C43.8628 18.4565 43.8628 18.4565 43.8628 22.5488C43.8628 22.5488 43.8628 22.5488 45.1961 22.5488C45.2431 22.5488 45.2431 22.5488 45.2431 22.5047C45.2431 22.5047 45.2431 22.5047 45.2431 19.0486C45.2431 18.6383 45.4256 18.4565 45.7935 18.4565C45.7935 18.4565 45.7935 18.4565 46.8059 18.4565C46.8059 18.4565 46.8059 18.4565 46.8059 19.4121C46.8059 19.4121 46.8059 19.4121 46.391 19.4121C46.344 19.4121 46.344 19.459 46.344 19.459C46.344 19.459 46.344 19.459 46.344 22.9591C46.344 23.3695 46.1614 23.5512 45.7935 23.5512C45.7935 23.5512 45.7935 23.5512 40.8728 23.5512C40.4606 23.5512 40.2753 23.3695 40.2753 22.9591C40.2753 22.9591 40.2753 22.9591 40.2753 19.459C40.2753 19.459 40.2753 19.4121 40.2311 19.4121C40.2311 19.4121 40.2311 19.4121 39.8162 19.4121C39.8162 19.4121 39.8162 19.4121 39.8162 18.4565Z" fill="#EDEDED"/>
<path fill-rule="evenodd" clip-rule="evenodd" d="M47.6771 18.4565C47.6771 18.4565 47.6771 18.4565 51.1263 18.4565C51.5412 18.4565 51.6795 18.6383 51.6795 19.0018C51.6795 19.0018 51.6795 19.0018 51.6795 19.8665H50.6671C50.6671 19.8665 50.6671 19.8665 50.6671 19.459C50.6671 19.4121 50.6671 19.4121 50.6201 19.4121C50.6201 19.4121 50.6201 19.4121 49.9784 19.4121C49.9784 19.4121 49.9784 19.4121 49.9784 23.5512C49.9784 23.5512 49.9784 23.5512 48.872 23.5512C48.872 23.5512 48.872 23.5512 48.872 19.4121C48.872 19.4121 48.872 19.4121 48.2303 19.4121C48.1833 19.4121 48.1833 19.4121 48.1833 19.459C48.1833 19.459 48.1833 19.459 48.1833 19.8665C48.1833 19.8665 48.1833 19.8665 47.1709 19.8665C47.1709 19.8665 47.1709 19.8665 47.1709 19.0018C47.1709 18.6383 47.3092 18.4565 47.6771 18.4565Z" fill="#EDEDED"/>
<path fill-rule="evenodd" clip-rule="evenodd" d="M53.104 18.4565C53.104 18.4565 53.104 18.4565 53.5687 18.4565H53.6545V19.9133C53.6075 20.0042 53.5632 20.1392 53.5632 20.2769C53.5632 20.2769 53.5632 20.2769 53.1953 21.3233C53.1953 21.3233 53.1953 21.3233 53.5826 21.3233H53.6545V22.2762H53.4055C53.2645 22.2762 53.104 22.2762 52.9187 22.2762C52.9187 22.2762 52.9187 22.2762 52.5979 23.05C52.5066 23.4135 52.3213 23.5512 51.9534 23.5512C51.9534 23.5512 51.9534 23.5512 51.2646 23.5512C51.2646 23.5512 51.2646 23.5512 51.2646 22.5488C51.2646 22.5488 51.2646 22.5488 51.4942 22.5488C51.5883 22.5488 51.5883 22.5488 51.6325 22.5047C51.6325 22.5047 51.6325 22.5047 53.104 18.4565Z" fill="#EDEDED"/>
<path fill-rule="evenodd" clip-rule="evenodd" d="M53.6543 18.4565H54.2047C54.2047 18.4565 54.2047 18.4565 55.679 22.5047C55.7233 22.5488 55.7233 22.5488 55.8173 22.5488H55.9999C55.9999 22.5488 55.9999 22.5488 55.9999 23.5512C55.9999 23.5512 55.9999 23.5512 55.3554 23.5512C54.9875 23.5512 54.805 23.4135 54.7109 23.05C54.7109 23.05 54.7109 23.05 54.3901 22.2762C54.3901 22.2762 54.3901 22.2762 53.7705 22.2762H53.6543V21.3233H54.1135C54.1135 21.3233 54.1135 21.3233 53.7456 20.2769C53.7456 20.1392 53.7013 20.0042 53.6543 19.9133V18.4565Z" fill="#EDEDED"/>
<path fill-rule="evenodd" clip-rule="evenodd" d="M21.9256 14.0754C21.9781 14.0589 22.0473 14.0919 22.1164 14.1828C22.1164 14.1828 22.1164 14.1828 25.242 17.2286C25.4246 17.4103 25.4246 17.6857 25.242 17.8206C25.242 17.8206 25.242 17.8206 22.1164 20.9132C22.0473 21.0041 21.9781 21.0262 21.9256 20.9986C21.873 20.9711 21.8398 20.8912 21.8398 20.7756V14.2737C21.8398 14.1608 21.873 14.0919 21.9256 14.0754Z" fill="#D13D43"/>
<path fill-rule="evenodd" clip-rule="evenodd" d="M16.5789 9H16.8002L17.0132 9.08812C17.0132 9.08812 17.0132 9.08812 20.2301 12.2716C20.3684 12.4534 20.3214 12.591 20.0918 12.591C20.0918 12.591 20.0918 12.591 18.7586 12.591C18.529 12.591 18.3464 12.7728 18.3464 13.0014C18.3464 13.0014 18.3464 13.0014 18.3464 15.3642C18.3464 15.5928 18.1611 15.7745 17.8845 15.7745C17.8845 15.7745 17.8845 15.7745 15.5417 15.7745C15.3121 15.7745 15.1268 15.5928 15.1268 15.3642C15.1268 15.3642 15.1268 15.3642 15.1268 13.0014C15.1268 12.7728 14.9442 12.591 14.7119 12.591H13.2874C13.0578 12.591 13.0108 12.4534 13.1491 12.2716C13.1491 12.2716 13.1491 12.2716 16.3687 9.08812L16.5789 9Z" fill="#D13D43"/>
<path fill-rule="evenodd" clip-rule="evenodd" d="M11.5391 14.0067C11.5972 14.0342 11.6332 14.1141 11.6332 14.2298V20.8666C11.6332 20.9823 11.5972 21.0511 11.5391 21.0731C11.4838 21.0952 11.4036 21.0731 11.3095 21.0043C11.3095 21.0043 11.3095 21.0043 8.13692 17.8208C7.95436 17.6859 7.95436 17.4105 8.13692 17.2287C8.13692 17.2287 8.13692 17.2287 11.3095 14.0921C11.4036 14.0012 11.4838 13.9792 11.5391 14.0067Z" fill="#D13D43"/>
<path fill-rule="evenodd" clip-rule="evenodd" d="M15.5415 19.2307C15.5415 19.2307 15.5415 19.2307 17.8843 19.2307C18.1609 19.2307 18.3462 19.4125 18.3462 19.641C18.3462 19.641 18.3462 19.641 18.3462 22.1416C18.3462 22.4142 18.5288 22.5959 18.7583 22.5959H20.0003C20.2299 22.5959 20.3211 22.7309 20.1386 22.8686C20.1386 22.8686 20.1386 22.8686 17.013 26.0052C16.9189 26.0961 16.8055 26.1429 16.6894 26.1429C16.576 26.1429 16.4598 26.0961 16.3685 26.0052C16.3685 26.0052 16.3685 26.0052 13.2429 22.8686C13.0576 22.7309 13.1489 22.5959 13.3784 22.5959C13.3784 22.5959 13.3784 22.5959 14.7117 22.5959C14.944 22.5959 15.1266 22.4142 15.1266 22.1416C15.1266 22.1416 15.1266 22.1416 15.1266 19.641C15.1266 19.4125 15.3119 19.2307 15.5415 19.2307Z" fill="#D13D43"/>
</g>
<rect x="0.5" y="0.5" width="63" height="35" rx="4.5" stroke="#EDEDED" stroke-opacity="0.2"/>
<defs>
<clipPath id="clip0_8_547">
<rect width="48" height="17.1429" fill="white" transform="translate(8 9)"/>
</clipPath>
</defs>
</svg>
