<svg width="64" height="36" viewBox="0 0 64 36" fill="none" xmlns="http://www.w3.org/2000/svg">
<rect width="64" height="36" rx="5" fill="#1A1A1A"/>
<path d="M35.6518 12.8889C35.6515 12.8888 31.7963 11.9898 31.7963 11.9898C30.6472 11.7218 29.9264 10.5446 30.1863 9.36034C30.4464 8.17609 31.5888 7.43341 32.7379 7.70131C33.8871 7.96931 34.6079 9.14653 34.3479 10.3307C34.2176 10.9236 33.8662 11.4054 33.4035 11.7055C33.4034 11.7055 33.4023 11.7065 33.4018 11.7067C33.3882 11.7168 33.3794 11.7332 33.3794 11.7516C33.3794 11.7774 33.3967 11.7991 33.4201 11.8049C33.4202 11.805 35.1351 12.2047 35.1354 12.2047C35.1762 12.2142 35.2186 12.198 35.2437 12.1638C35.2438 12.1635 35.2437 12.1638 35.2437 12.1638C35.7162 11.5195 36 10.7156 36 9.84616C36 7.79855 34.4476 6.12519 32.4896 6.00634C32.4721 6.00534 32.366 6.00107 32.3301 6.00055C31.4632 5.98652 30.5842 6.24269 29.8198 6.79435C27.8895 8.18721 27.4205 10.9288 28.7719 12.918L32.2019 17.9661C32.2166 17.9867 32.2402 18 32.2666 18C32.2933 18 32.317 17.9864 32.3315 17.9657C32.3315 17.9657 35.6997 13.0158 35.7 13.0153C35.7086 13.0022 35.7137 12.9863 35.7137 12.9692C35.7137 12.9301 35.6873 12.8973 35.6518 12.8889Z" fill="#FABC26"/>
<path d="M9.1788 24.0684C9.23809 24.0684 9.2774 24.0855 9.29706 24.1198L10.9405 26.5581H11.0191L12.4166 24.1539C12.446 24.0939 12.5052 24.0684 12.5839 24.0684H13.5877C13.6763 24.0684 13.7254 24.1455 13.6859 24.2052L10.7927 28.6544C10.7633 28.7057 10.7043 28.7314 10.6255 28.7314H9.64141C9.53313 28.7314 9.52336 28.6715 9.56277 28.603L10.3401 27.4479L8.01771 24.1797C7.97819 24.1198 8.00783 24.0684 8.07668 24.0684H9.1788Z" fill="#EDEDED"/>
<path d="M15.414 24.0684C15.5026 24.0684 15.5518 24.1111 15.5518 24.1881V26.018L17.7662 24.1368C17.8252 24.0939 17.9137 24.0684 18.022 24.0684H19.2226C19.3112 24.0684 19.3408 24.1368 19.2718 24.1967L16.9197 26.1133L19.4194 28.603C19.4883 28.6628 19.4491 28.7314 19.3605 28.7314H18.1795C18.0713 28.7314 17.9926 28.7057 17.9334 28.6457L16.0606 26.7252L15.5518 27.1366V28.6116C15.5518 28.6886 15.5026 28.7314 15.414 28.7314H14.5481C14.4595 28.7314 14.4104 28.6886 14.4104 28.6116V24.1881C14.4104 24.1111 14.4595 24.0684 14.5481 24.0684H15.414Z" fill="#EDEDED"/>
<path d="M22.6826 26.5497C23.2829 26.5497 23.6272 26.2246 23.6272 25.7712C23.6272 25.3262 23.2829 25.0097 22.6826 25.0097H21.2554V26.5497H22.6826ZM22.6826 24.0684C23.8731 24.0684 24.7685 24.8128 24.7685 25.7712C24.7685 26.7636 23.8731 27.4909 22.6826 27.4909H21.2554V28.6116C21.2554 28.6886 21.2062 28.7314 21.1178 28.7314H20.2516C20.1631 28.7314 20.1138 28.6886 20.1138 28.6116V24.1882C20.1138 24.1112 20.1631 24.0684 20.2516 24.0684H22.6826Z" fill="#EDEDED"/>
<path d="M30.1477 24.0684C30.2361 24.0684 30.2856 24.1111 30.2856 24.1881V28.6116C30.2856 28.6886 30.2361 28.7314 30.1477 28.7314H29.2814C29.1933 28.7314 29.1438 28.6886 29.1438 28.6116V25.0009H26.7622V28.6116C26.7622 28.6886 26.7129 28.7314 26.6245 28.7314H25.7585C25.6698 28.7314 25.6206 28.6886 25.6206 28.6116V24.1881C25.6206 24.1111 25.6698 24.0684 25.7585 24.0684H30.1477Z" fill="#EDEDED"/>
<path d="M32.4531 26.4043C32.4531 27.2514 33.1418 27.8672 34.1259 27.8672C35.1004 27.8672 35.7894 27.2514 35.7894 26.4043C35.7894 25.5402 35.1004 24.9327 34.1259 24.9327C33.1418 24.9327 32.4531 25.5402 32.4531 26.4043ZM34.1259 24C35.6711 24 36.9407 25.0353 36.9407 26.4043C36.9407 27.7818 35.6711 28.8 34.1259 28.8C32.5712 28.8 31.3018 27.7818 31.3018 26.4043C31.3018 25.0353 32.5712 24 34.1259 24Z" fill="#EDEDED"/>
<path d="M40.7621 27.7989V24.188C40.7621 24.1112 40.811 24.0684 40.9 24.0684H41.7462C41.8348 24.0684 41.8841 24.1112 41.8841 24.188V27.7989H43.5669V24.188C43.5669 24.1112 43.6158 24.0684 43.7045 24.0684H44.551C44.6396 24.0684 44.6886 24.1112 44.6886 24.188V28.6116C44.6886 28.6886 44.6396 28.7314 44.551 28.7314H38.0952C38.0264 28.7314 37.9573 28.6886 37.9573 28.6116V24.188C37.9573 24.1112 38.0062 24.0684 38.0952 24.0684H38.9414C39.03 24.0684 39.0793 24.1112 39.0793 24.188V27.7989H40.7621Z" fill="#EDEDED"/>
<path d="M50.1571 24.0684C50.2452 24.0684 50.2947 24.1111 50.2947 24.1881V24.8897C50.2947 24.9668 50.2452 25.0094 50.1571 25.0094H48.4446V28.6116C48.4446 28.6886 48.3951 28.7314 48.3067 28.7314H47.4406C47.3522 28.7314 47.303 28.6886 47.303 28.6116V25.0094H45.5905C45.5021 25.0094 45.4526 24.9668 45.4526 24.8897V24.1881C45.4526 24.1111 45.5021 24.0684 45.5905 24.0684H50.1571Z" fill="#EDEDED"/>
<path d="M52.104 26.9091H53.9737L53.108 24.9926H52.9997L52.104 26.9091ZM54.3676 27.8074H51.6906L51.3169 28.6287C51.2875 28.6973 51.2285 28.7314 51.1496 28.7314H50.1753C50.0771 28.7314 50.0475 28.6886 50.0771 28.6116L52.3994 24.137C52.419 24.0941 52.4585 24.0684 52.5275 24.0684H53.6492C53.7181 24.0684 53.7575 24.0941 53.7771 24.137L55.9914 28.5945C56.021 28.6631 55.9718 28.7314 55.8831 28.7314H54.9483C54.8501 28.7314 54.7807 28.6886 54.7416 28.6116L54.3676 27.8074Z" fill="#EDEDED"/>
<rect x="0.5" y="0.5" width="63" height="35" rx="4.5" stroke="#EDEDED" stroke-opacity="0.2"/>
</svg>
