<svg width="32" height="32" viewBox="0 0 32 32" fill="none" xmlns="http://www.w3.org/2000/svg">
<path d="M25.59 10.2506C24.8868 8.442 23.199 7.18906 21.2442 7.02454C21.0592 7.0086 20.8722 7 20.6826 7C18.8844 7.00437 17.1763 7.77813 16 9.12123C14.8237 7.77813 13.1156 7.00437 11.3174 7C11.1278 7 10.9408 7.0086 10.7554 7.02482C8.80077 7.18943 7.11319 8.44223 6.41003 10.2506C5.62443 12.1436 5.98511 14.3121 7.34261 15.8574L15.4609 25.0906C15.5966 25.2448 15.7932 25.3333 16.0001 25.3333C16.2069 25.3333 16.4036 25.2448 16.5392 25.0906L24.6574 15.8574C26.0149 14.3121 26.3756 12.1436 25.59 10.2506ZM23.5796 14.9327L16 23.5526L8.42064 14.9327C7.41638 13.7866 7.15102 12.1798 7.73449 10.778C8.24193 9.46437 9.46463 8.55234 10.883 8.4295C11.0259 8.41667 11.1707 8.41018 11.3174 8.41018C12.9863 8.40106 14.5352 9.26581 15.3876 10.6827C15.5258 10.8824 15.7549 11.0018 15.9999 11.0018C16.2448 11.0018 16.4739 10.8824 16.6121 10.6827C17.4646 9.26572 19.0136 8.40096 20.6826 8.41018C20.829 8.41018 20.9741 8.41681 21.1163 8.4295C22.5349 8.55215 23.7578 9.4642 24.2654 10.778C24.8489 12.1798 24.5838 13.7865 23.5796 14.9327Z" fill="#EDEDED"/>
</svg>
