<svg width="48" height="48" viewBox="0 0 48 48" fill="none" xmlns="http://www.w3.org/2000/svg">
<path d="M23.9167 25.2133C22.0136 25.2156 20.3737 23.8704 19.9995 22C19.9702 21.8066 20.0271 21.6101 20.1551 21.4625C20.2832 21.3149 20.4694 21.2311 20.6645 21.2333C20.9919 21.2286 21.274 21.4633 21.3296 21.7867C21.5877 23.0219 22.6743 23.9065 23.9333 23.9065C25.1922 23.9065 26.2788 23.0219 26.537 21.7867C26.5926 21.4633 26.8747 21.2286 27.202 21.2333C27.3972 21.2311 27.5834 21.3149 27.7114 21.4625C27.8395 21.6101 27.8964 21.8066 27.8671 22C27.4904 23.8828 25.8322 25.2316 23.9167 25.2133Z" fill="#EDEDED"/>
<path d="M29.8357 34H17.9977C17.4508 34.0007 16.9276 33.7763 16.5504 33.3793C16.1732 32.9823 15.9752 32.4476 16.0025 31.9L16.5412 20.4067C16.5875 19.3361 17.4674 18.4923 18.5364 18.4933H29.297C30.366 18.4923 31.2458 19.3361 31.2921 20.4067L31.8308 31.9C31.8582 32.4476 31.6601 32.9823 31.2829 33.3793C30.9058 33.7763 30.3826 34.0007 29.8357 34ZM18.5364 19.8333C18.1691 19.8333 17.8713 20.1318 17.8713 20.5L17.3326 31.9667C17.3235 32.1492 17.3895 32.3275 17.5152 32.4598C17.641 32.5921 17.8154 32.6669 17.9977 32.6667H29.8357C30.018 32.6669 30.1924 32.5921 30.3181 32.4598C30.4438 32.3275 30.5098 32.1492 30.5007 31.9667L29.962 20.4733C29.962 20.1052 29.6643 19.8067 29.297 19.8067L18.5364 19.8333Z" fill="#EDEDED"/>
<path d="M27.9069 19.1667H26.5768V18C26.5768 16.5272 25.3858 15.3333 23.9166 15.3333C22.4474 15.3333 21.2564 16.5272 21.2564 18V19.1667H19.9263V18C19.9263 15.7909 21.7128 14 23.9166 14C26.1204 14 27.9069 15.7909 27.9069 18V19.1667Z" fill="#EDEDED"/>
</svg>
