<svg width="48" height="48" viewBox="0 0 48 48" fill="none" xmlns="http://www.w3.org/2000/svg">
<path d="M27.2503 35.6459H20.7503C14.8678 35.6459 12.3545 33.1326 12.3545 27.2501V20.7501C12.3545 14.8676 14.8678 12.3542 20.7503 12.3542H27.2503C33.1328 12.3542 35.6462 14.8676 35.6462 20.7501V27.2501C35.6462 33.1326 33.1328 35.6459 27.2503 35.6459ZM20.7503 13.9792C15.7562 13.9792 13.9795 15.7559 13.9795 20.7501V27.2501C13.9795 32.2442 15.7562 34.0209 20.7503 34.0209H27.2503C32.2445 34.0209 34.0212 32.2442 34.0212 27.2501V20.7501C34.0212 15.7559 32.2445 13.9792 27.2503 13.9792H20.7503Z" fill="#EDEDED"/>
<path d="M23.9997 28.6041C21.4647 28.6041 19.3955 26.5349 19.3955 23.9999C19.3955 21.4649 21.4647 19.3958 23.9997 19.3958C26.5347 19.3958 28.6038 21.4649 28.6038 23.9999C28.6038 26.5349 26.5347 28.6041 23.9997 28.6041ZM23.9997 21.0208C22.353 21.0208 21.0205 22.3533 21.0205 23.9999C21.0205 25.6466 22.353 26.9791 23.9997 26.9791C25.6463 26.9791 26.9788 25.6466 26.9788 23.9999C26.9788 22.3533 25.6463 21.0208 23.9997 21.0208Z" fill="#EDEDED"/>
<path d="M29.4163 19.125C29.2755 19.125 29.1347 19.0925 29.0047 19.0383C28.8747 18.9841 28.7555 18.9083 28.6472 18.8108C28.5497 18.7025 28.463 18.5833 28.4088 18.4533C28.3547 18.3233 28.333 18.1825 28.333 18.0416C28.333 17.9008 28.3547 17.76 28.4088 17.63C28.4738 17.4891 28.5497 17.3808 28.6472 17.2725C28.7013 17.2291 28.7555 17.175 28.8097 17.1425C28.8747 17.0991 28.9397 17.0666 29.0047 17.045C29.0697 17.0125 29.1347 16.9908 29.2105 16.98C29.5572 16.9041 29.9255 17.0233 30.1855 17.2725C30.283 17.3808 30.3588 17.4891 30.413 17.63C30.4672 17.76 30.4997 17.9008 30.4997 18.0416C30.4997 18.1825 30.4672 18.3233 30.413 18.4533C30.3588 18.5833 30.283 18.7025 30.1855 18.8108C30.0772 18.9083 29.958 18.9841 29.828 19.0383C29.698 19.0925 29.5572 19.125 29.4163 19.125Z" fill="#EDEDED"/>
</svg>
