<svg width="48" height="48" viewBox="0 0 48 48" fill="none" xmlns="http://www.w3.org/2000/svg">
<path d="M33.59 18.2506C32.8868 16.442 31.199 15.1891 29.2442 15.0245C29.0592 15.0086 28.8722 15 28.6826 15C26.8844 15.0044 25.1763 15.7781 24 17.1212C22.8237 15.7781 21.1156 15.0044 19.3174 15C19.1278 15 18.9408 15.0086 18.7554 15.0248C16.8008 15.1894 15.1132 16.4422 14.41 18.2506C13.6244 20.1436 13.9851 22.3121 15.3426 23.8574L23.4609 33.0906C23.5966 33.2448 23.7932 33.3333 24.0001 33.3333C24.2069 33.3333 24.4036 33.2448 24.5392 33.0906L32.6574 23.8574C34.0149 22.3121 34.3756 20.1436 33.59 18.2506ZM31.5796 22.9327L24 31.5526L16.4206 22.9327C15.4164 21.7866 15.151 20.1798 15.7345 18.778C16.2419 17.4644 17.4646 16.5523 18.883 16.4295C19.0259 16.4167 19.1707 16.4102 19.3174 16.4102C20.9863 16.4011 22.5352 17.2658 23.3876 18.6827C23.5258 18.8824 23.7549 19.0018 23.9999 19.0018C24.2448 19.0018 24.4739 18.8824 24.6121 18.6827C25.4646 17.2657 27.0136 16.401 28.6826 16.4102C28.829 16.4102 28.9741 16.4168 29.1163 16.4295C30.5349 16.5522 31.7578 17.4642 32.2654 18.778C32.8489 20.1798 32.5838 21.7865 31.5796 22.9327Z" fill="#EDEDED"/>
</svg>
