<svg width="27" height="22" viewBox="0 0 27 22" fill="none" xmlns="http://www.w3.org/2000/svg">
<mask id="path-1-outside-1_51_246" maskUnits="userSpaceOnUse" x="0" y="0" width="27" height="22" fill="black">
<rect fill="white" width="27" height="22"/>
<path fill-rule="evenodd" clip-rule="evenodd" d="M11.6744 1.05127L10.0594 1.07912L9.91126 1.21248L9.76316 1.34583L9.447 1.63447L9.13084 1.92312L7.74932 3.15831L6.36779 4.39349L6.32284 4.58255L6.27789 4.7716L6.21337 5.16723L6.14884 5.56285L6.02358 6.32772L5.89837 7.09259L5.76268 7.88384L5.62705 8.67508L5.52326 9.33445L5.41942 9.99383L5.39526 10.0729L5.3711 10.1521L5.29053 10.7059L5.2099 11.2598L5.15711 11.4972L5.10426 11.7346L4.99616 12.3939L4.888 13.0533L4.787 13.6599L4.686 14.2666L4.57932 14.9523L4.47268 15.638L4.44511 15.7129L4.41753 15.7877L4.31432 16.4514L4.21111 17.115L4.15474 17.4315L4.09832 17.748L4.02153 18.2173L3.94474 18.6866L3.57158 19.6284L3.19842 20.5701H2.09921H1V20.785V21L13.4342 20.9656L25.8684 20.9312L25.9342 20.9105L26 20.89V20.7037V20.5174H24.8966H23.7932L23.7349 20.4083L23.6766 20.2991L23.3342 19.4466L22.9917 18.5941L22.8886 17.9865L22.7855 17.3788L22.6794 16.7722L22.5733 16.1655L22.4748 15.5853L22.3762 15.005L22.2671 14.3852L22.1579 13.7654L22.0526 13.1588L21.9474 12.5522L21.8379 11.9324L21.7285 11.3126L21.6337 10.7587L21.5389 10.2048L21.4538 9.7037L21.3687 9.20258L21.2902 8.78058L21.2117 8.35858L21.1249 7.85746L21.0382 7.35634L20.94 6.77609L20.8418 6.19585L20.7382 5.56285L20.6345 4.92985L20.5617 4.62955L20.4889 4.32925L20.3122 4.18118L20.1354 4.03311L19.6335 3.58711L19.1316 3.14116L18.9737 3.00059L18.8158 2.86001L17.8684 2.0205L16.9211 1.18104L16.7909 1.09052L16.6608 1L14.9751 1.01171L13.2895 1.02337L11.6744 1.05127ZM16.6933 1.56706L16.8684 1.71212L18.46 3.12565L20.0516 4.53919L20.1037 4.63683L20.1559 4.73452L20.2601 5.35971L20.3642 5.98485L20.4768 6.61784L20.5893 7.25084L20.6832 7.80471L20.7771 8.35858L20.8621 8.85971L20.9471 9.36083L21.0051 9.64394L21.0629 9.9271L21.1317 10.3561L21.2004 10.7851L21.3411 11.5763L21.4817 12.3676L21.5856 12.9742L21.6896 13.5808L21.7884 14.1611L21.8872 14.7413L21.9925 15.3479L22.0977 15.9545L22.2037 16.5612L22.3097 17.1678L22.4428 17.9347L22.5758 18.7016L22.6521 18.9106L22.7285 19.1195L22.9959 19.7707L23.2633 20.4218L23.2391 20.4611L23.2148 20.5004L13.5013 20.5379L3.78779 20.5753L3.74226 20.5471L3.69674 20.5189L3.81789 20.1884L3.93905 19.858L4.12753 19.3932L4.316 18.9285L4.39442 18.5756L4.47284 18.2228L4.54863 17.7217L4.62442 17.2205L4.78916 16.271L4.95389 15.3215L5.05111 14.7149L5.14826 14.1083L5.23237 13.6072L5.31647 13.1061L5.42105 12.4994L5.52563 11.8928L5.61158 11.3917L5.69753 10.8906L5.79216 10.3103L5.88674 9.73008L6.02542 8.91246L6.1641 8.09484L6.26658 7.48821L6.369 6.88159L6.47542 6.19606L6.58184 5.51057L6.62821 5.32569L6.67458 5.14085L6.70863 4.89235L6.74268 4.64384L7.96342 3.55024L9.18421 2.45658L9.70653 1.97888L10.2288 1.50112L12.8644 1.4738L15.5 1.44642L16.0091 1.43424L16.5183 1.422L16.6933 1.56706Z"/>
</mask>
<path fill-rule="evenodd" clip-rule="evenodd" d="M11.6744 1.05127L10.0594 1.07912L9.91126 1.21248L9.76316 1.34583L9.447 1.63447L9.13084 1.92312L7.74932 3.15831L6.36779 4.39349L6.32284 4.58255L6.27789 4.7716L6.21337 5.16723L6.14884 5.56285L6.02358 6.32772L5.89837 7.09259L5.76268 7.88384L5.62705 8.67508L5.52326 9.33445L5.41942 9.99383L5.39526 10.0729L5.3711 10.1521L5.29053 10.7059L5.2099 11.2598L5.15711 11.4972L5.10426 11.7346L4.99616 12.3939L4.888 13.0533L4.787 13.6599L4.686 14.2666L4.57932 14.9523L4.47268 15.638L4.44511 15.7129L4.41753 15.7877L4.31432 16.4514L4.21111 17.115L4.15474 17.4315L4.09832 17.748L4.02153 18.2173L3.94474 18.6866L3.57158 19.6284L3.19842 20.5701H2.09921H1V20.785V21L13.4342 20.9656L25.8684 20.9312L25.9342 20.9105L26 20.89V20.7037V20.5174H24.8966H23.7932L23.7349 20.4083L23.6766 20.2991L23.3342 19.4466L22.9917 18.5941L22.8886 17.9865L22.7855 17.3788L22.6794 16.7722L22.5733 16.1655L22.4748 15.5853L22.3762 15.005L22.2671 14.3852L22.1579 13.7654L22.0526 13.1588L21.9474 12.5522L21.8379 11.9324L21.7285 11.3126L21.6337 10.7587L21.5389 10.2048L21.4538 9.7037L21.3687 9.20258L21.2902 8.78058L21.2117 8.35858L21.1249 7.85746L21.0382 7.35634L20.94 6.77609L20.8418 6.19585L20.7382 5.56285L20.6345 4.92985L20.5617 4.62955L20.4889 4.32925L20.3122 4.18118L20.1354 4.03311L19.6335 3.58711L19.1316 3.14116L18.9737 3.00059L18.8158 2.86001L17.8684 2.0205L16.9211 1.18104L16.7909 1.09052L16.6608 1L14.9751 1.01171L13.2895 1.02337L11.6744 1.05127ZM16.6933 1.56706L16.8684 1.71212L18.46 3.12565L20.0516 4.53919L20.1037 4.63683L20.1559 4.73452L20.2601 5.35971L20.3642 5.98485L20.4768 6.61784L20.5893 7.25084L20.6832 7.80471L20.7771 8.35858L20.8621 8.85971L20.9471 9.36083L21.0051 9.64394L21.0629 9.9271L21.1317 10.3561L21.2004 10.7851L21.3411 11.5763L21.4817 12.3676L21.5856 12.9742L21.6896 13.5808L21.7884 14.1611L21.8872 14.7413L21.9925 15.3479L22.0977 15.9545L22.2037 16.5612L22.3097 17.1678L22.4428 17.9347L22.5758 18.7016L22.6521 18.9106L22.7285 19.1195L22.9959 19.7707L23.2633 20.4218L23.2391 20.4611L23.2148 20.5004L13.5013 20.5379L3.78779 20.5753L3.74226 20.5471L3.69674 20.5189L3.81789 20.1884L3.93905 19.858L4.12753 19.3932L4.316 18.9285L4.39442 18.5756L4.47284 18.2228L4.54863 17.7217L4.62442 17.2205L4.78916 16.271L4.95389 15.3215L5.05111 14.7149L5.14826 14.1083L5.23237 13.6072L5.31647 13.1061L5.42105 12.4994L5.52563 11.8928L5.61158 11.3917L5.69753 10.8906L5.79216 10.3103L5.88674 9.73008L6.02542 8.91246L6.1641 8.09484L6.26658 7.48821L6.369 6.88159L6.47542 6.19606L6.58184 5.51057L6.62821 5.32569L6.67458 5.14085L6.70863 4.89235L6.74268 4.64384L7.96342 3.55024L9.18421 2.45658L9.70653 1.97888L10.2288 1.50112L12.8644 1.4738L15.5 1.44642L16.0091 1.43424L16.5183 1.422L16.6933 1.56706Z" fill="#EDEDED"/>
<path fill-rule="evenodd" clip-rule="evenodd" d="M11.6744 1.05127L10.0594 1.07912L9.91126 1.21248L9.76316 1.34583L9.447 1.63447L9.13084 1.92312L7.74932 3.15831L6.36779 4.39349L6.32284 4.58255L6.27789 4.7716L6.21337 5.16723L6.14884 5.56285L6.02358 6.32772L5.89837 7.09259L5.76268 7.88384L5.62705 8.67508L5.52326 9.33445L5.41942 9.99383L5.39526 10.0729L5.3711 10.1521L5.29053 10.7059L5.2099 11.2598L5.15711 11.4972L5.10426 11.7346L4.99616 12.3939L4.888 13.0533L4.787 13.6599L4.686 14.2666L4.57932 14.9523L4.47268 15.638L4.44511 15.7129L4.41753 15.7877L4.31432 16.4514L4.21111 17.115L4.15474 17.4315L4.09832 17.748L4.02153 18.2173L3.94474 18.6866L3.57158 19.6284L3.19842 20.5701H2.09921H1V20.785V21L13.4342 20.9656L25.8684 20.9312L25.9342 20.9105L26 20.89V20.7037V20.5174H24.8966H23.7932L23.7349 20.4083L23.6766 20.2991L23.3342 19.4466L22.9917 18.5941L22.8886 17.9865L22.7855 17.3788L22.6794 16.7722L22.5733 16.1655L22.4748 15.5853L22.3762 15.005L22.2671 14.3852L22.1579 13.7654L22.0526 13.1588L21.9474 12.5522L21.8379 11.9324L21.7285 11.3126L21.6337 10.7587L21.5389 10.2048L21.4538 9.7037L21.3687 9.20258L21.2902 8.78058L21.2117 8.35858L21.1249 7.85746L21.0382 7.35634L20.94 6.77609L20.8418 6.19585L20.7382 5.56285L20.6345 4.92985L20.5617 4.62955L20.4889 4.32925L20.3122 4.18118L20.1354 4.03311L19.6335 3.58711L19.1316 3.14116L18.9737 3.00059L18.8158 2.86001L17.8684 2.0205L16.9211 1.18104L16.7909 1.09052L16.6608 1L14.9751 1.01171L13.2895 1.02337L11.6744 1.05127ZM16.6933 1.56706L16.8684 1.71212L18.46 3.12565L20.0516 4.53919L20.1037 4.63683L20.1559 4.73452L20.2601 5.35971L20.3642 5.98485L20.4768 6.61784L20.5893 7.25084L20.6832 7.80471L20.7771 8.35858L20.8621 8.85971L20.9471 9.36083L21.0051 9.64394L21.0629 9.9271L21.1317 10.3561L21.2004 10.7851L21.3411 11.5763L21.4817 12.3676L21.5856 12.9742L21.6896 13.5808L21.7884 14.1611L21.8872 14.7413L21.9925 15.3479L22.0977 15.9545L22.2037 16.5612L22.3097 17.1678L22.4428 17.9347L22.5758 18.7016L22.6521 18.9106L22.7285 19.1195L22.9959 19.7707L23.2633 20.4218L23.2391 20.4611L23.2148 20.5004L13.5013 20.5379L3.78779 20.5753L3.74226 20.5471L3.69674 20.5189L3.81789 20.1884L3.93905 19.858L4.12753 19.3932L4.316 18.9285L4.39442 18.5756L4.47284 18.2228L4.54863 17.7217L4.62442 17.2205L4.78916 16.271L4.95389 15.3215L5.05111 14.7149L5.14826 14.1083L5.23237 13.6072L5.31647 13.1061L5.42105 12.4994L5.52563 11.8928L5.61158 11.3917L5.69753 10.8906L5.79216 10.3103L5.88674 9.73008L6.02542 8.91246L6.1641 8.09484L6.26658 7.48821L6.369 6.88159L6.47542 6.19606L6.58184 5.51057L6.62821 5.32569L6.67458 5.14085L6.70863 4.89235L6.74268 4.64384L7.96342 3.55024L9.18421 2.45658L9.70653 1.97888L10.2288 1.50112L12.8644 1.4738L15.5 1.44642L16.0091 1.43424L16.5183 1.422L16.6933 1.56706Z" stroke="#EDEDED" mask="url(#path-1-outside-1_51_246)"/>
</svg>
