<svg width="253" height="14" viewBox="0 0 253 14" fill="none" xmlns="http://www.w3.org/2000/svg">
<path d="M7.3991 2.2V3.432H4.5011V12H3.2131V3.432H0.329102V2.2H7.3991Z" fill="url(#paint0_linear_205_1231)"/>
<path d="M9.98965 10.768H14.5396V12H8.68765V2.2H14.4696V3.432H9.98965V6.442H14.1196V7.66H9.98965V10.768Z" fill="url(#paint1_linear_205_1231)"/>
<path d="M25.2815 2.2V12H23.9935V4.342L20.7875 9.676H20.6195L17.4135 4.356V12H16.1115V2.2H17.5815L20.7035 7.38L23.8115 2.2H25.2815Z" fill="url(#paint2_linear_205_1231)"/>
<path d="M33.4391 2.2H34.7271V12H33.4391V7.59H28.6791V12H27.3771V2.2H28.6791V6.358H33.4391V2.2Z" fill="url(#paint3_linear_205_1231)"/>
<path d="M43.2784 12L42.4804 9.802H38.0704L37.2724 12H35.8864L39.5404 2.2H41.0104L44.6644 12H43.2784ZM38.5184 8.584H42.0324L40.2684 3.754L38.5184 8.584Z" fill="url(#paint4_linear_205_1231)"/>
<path d="M56.4465 12H54.8505L50.6225 7.296V12H49.3205V2.2H50.6225V6.624L54.7105 2.2H56.3065L51.9805 6.96L56.4465 12Z" fill="url(#paint5_linear_205_1231)"/>
<path d="M64.2374 12L63.4394 9.802H59.0294L58.2314 12H56.8454L60.4994 2.2H61.9694L65.6234 12H64.2374ZM59.4774 8.584H62.9914L61.2274 3.754L59.4774 8.584Z" fill="url(#paint6_linear_205_1231)"/>
<path d="M72.3794 6.918C72.8274 7.13267 73.1821 7.44067 73.4434 7.842C73.7141 8.24333 73.8494 8.70533 73.8494 9.228C73.8494 10.012 73.5741 10.67 73.0234 11.202C72.4728 11.734 71.8008 12 71.0074 12H66.7794V2.2H70.6994C71.4648 2.2 72.1134 2.45666 72.6454 2.97C73.1774 3.48333 73.4434 4.118 73.4434 4.874C73.4434 5.742 73.0888 6.42333 72.3794 6.918ZM70.6994 3.418H68.0814V6.414H70.6994C71.1101 6.414 71.4554 6.26933 71.7354 5.98C72.0154 5.69066 72.1554 5.336 72.1554 4.916C72.1554 4.50533 72.0108 4.15533 71.7214 3.866C71.4414 3.56733 71.1008 3.418 70.6994 3.418ZM71.0074 10.782C71.4461 10.782 71.8148 10.628 72.1134 10.32C72.4121 10.012 72.5614 9.634 72.5614 9.186C72.5614 8.74733 72.4074 8.374 72.0994 8.066C71.8008 7.758 71.4368 7.604 71.0074 7.604H68.0814V10.782H71.0074Z" fill="url(#paint7_linear_205_1231)"/>
<path d="M81.8467 12L81.0487 9.802H76.6387L75.8407 12H74.4547L78.1087 2.2H79.5787L83.2327 12H81.8467ZM77.0867 8.584H80.6007L78.8367 3.754L77.0867 8.584Z" fill="url(#paint8_linear_205_1231)"/>
<path d="M87.8888 8.29V7.114H92.9988V8.29H87.8888Z" fill="url(#paint9_linear_205_1231)"/>
<path d="M103.2 12.182C101.716 12.182 100.489 11.692 99.5179 10.712C98.5566 9.732 98.0759 8.528 98.0759 7.1C98.0759 5.672 98.5566 4.468 99.5179 3.488C100.489 2.508 101.716 2.018 103.2 2.018C104.096 2.018 104.917 2.23266 105.664 2.662C106.42 3.09133 107.008 3.67 107.428 4.398L106.294 5.056C106.014 4.51467 105.594 4.08533 105.034 3.768C104.483 3.44133 103.872 3.278 103.2 3.278C102.071 3.278 101.147 3.642 100.428 4.37C99.7186 5.098 99.3639 6.008 99.3639 7.1C99.3639 8.18266 99.7186 9.088 100.428 9.816C101.147 10.544 102.071 10.908 103.2 10.908C103.872 10.908 104.483 10.7493 105.034 10.432C105.594 10.1053 106.014 9.676 106.294 9.144L107.428 9.788C107.017 10.516 106.434 11.0993 105.678 11.538C104.922 11.9673 104.096 12.182 103.2 12.182Z" fill="url(#paint10_linear_205_1231)"/>
<path d="M114.502 6.918C114.95 7.13267 115.305 7.44067 115.566 7.842C115.837 8.24333 115.972 8.70533 115.972 9.228C115.972 10.012 115.697 10.67 115.146 11.202C114.596 11.734 113.924 12 113.13 12H108.902V2.2H112.822C113.588 2.2 114.236 2.45666 114.768 2.97C115.3 3.48333 115.566 4.118 115.566 4.874C115.566 5.742 115.212 6.42333 114.502 6.918ZM112.822 3.418H110.204V6.414H112.822C113.233 6.414 113.578 6.26933 113.858 5.98C114.138 5.69066 114.278 5.336 114.278 4.916C114.278 4.50533 114.134 4.15533 113.844 3.866C113.564 3.56733 113.224 3.418 112.822 3.418ZM113.13 10.782C113.569 10.782 113.938 10.628 114.236 10.32C114.535 10.012 114.684 9.634 114.684 9.186C114.684 8.74733 114.53 8.374 114.222 8.066C113.924 7.758 113.56 7.604 113.13 7.604H110.204V10.782H113.13Z" fill="url(#paint11_linear_205_1231)"/>
<path d="M117.516 2.2H118.818V12H117.516V2.2Z" fill="url(#paint12_linear_205_1231)"/>
<path d="M127.192 2.2V3.432H124.294V12H123.006V3.432H120.122V2.2H127.192Z" fill="url(#paint13_linear_205_1231)"/>
<path d="M126.793 12V10.824C127.437 10.9173 127.917 10.74 128.235 10.292C128.561 9.83466 128.725 8.99 128.725 7.758V2.2H135.193V12H133.891V3.432H130.027V7.758C130.027 8.63533 129.943 9.37267 129.775 9.97C129.616 10.558 129.383 11.0013 129.075 11.3C128.776 11.5987 128.44 11.804 128.067 11.916C127.703 12.0187 127.278 12.0467 126.793 12Z" fill="url(#paint14_linear_205_1231)"/>
<path d="M143.389 12V4.692L138.349 12H137.299V2.2H138.601V9.522L143.641 2.2H144.691V12H143.389Z" fill="url(#paint15_linear_205_1231)"/>
<path d="M148.593 1.15V0.0859985H152.373V1.15H148.593ZM152.877 12V4.692L147.837 12H146.787V2.2H148.089V9.522L153.129 2.2H154.179V12H152.877Z" fill="url(#paint16_linear_205_1231)"/>
<path d="M166.888 2.2V12H165.586V3.432H161.078V12H159.776V2.2H166.888Z" fill="url(#paint17_linear_205_1231)"/>
<path d="M177.138 10.698C176.158 11.6873 174.959 12.182 173.54 12.182C172.122 12.182 170.922 11.6873 169.942 10.698C168.962 9.70866 168.472 8.50933 168.472 7.1C168.472 5.68133 168.962 4.482 169.942 3.502C170.922 2.51266 172.122 2.018 173.54 2.018C174.959 2.018 176.158 2.51266 177.138 3.502C178.128 4.482 178.622 5.68133 178.622 7.1C178.622 8.50933 178.128 9.70866 177.138 10.698ZM170.838 9.816C171.566 10.544 172.467 10.908 173.54 10.908C174.614 10.908 175.51 10.544 176.228 9.816C176.956 9.07866 177.32 8.17333 177.32 7.1C177.32 6.01733 176.956 5.112 176.228 4.384C175.51 3.64667 174.614 3.278 173.54 3.278C172.467 3.278 171.566 3.64667 170.838 4.384C170.12 5.112 169.76 6.01733 169.76 7.1C169.76 8.17333 170.12 9.07866 170.838 9.816Z" fill="url(#paint18_linear_205_1231)"/>
<path d="M185.427 2.2H186.729V12H185.427V8.052C184.662 8.416 183.859 8.598 183.019 8.598C182.067 8.598 181.297 8.332 180.709 7.8C180.121 7.25867 179.827 6.55867 179.827 5.7V2.2H181.129V5.616C181.129 6.148 181.297 6.57266 181.633 6.89C181.969 7.20733 182.436 7.366 183.033 7.366C183.873 7.366 184.671 7.184 185.427 6.82V2.2Z" fill="url(#paint19_linear_205_1231)"/>
<path d="M195.282 12L194.484 9.802H190.074L189.276 12H187.89L191.544 2.2H193.014L196.668 12H195.282ZM190.522 8.584H194.036L192.272 3.754L190.522 8.584Z" fill="url(#paint20_linear_205_1231)"/>
<path d="M203.385 2.2V3.432H200.487V12H199.199V3.432H196.315V2.2H203.385Z" fill="url(#paint21_linear_205_1231)"/>
<path d="M212.261 10.698C211.281 11.6873 210.082 12.182 208.663 12.182C207.245 12.182 206.045 11.6873 205.065 10.698C204.085 9.70866 203.595 8.50933 203.595 7.1C203.595 5.68133 204.085 4.482 205.065 3.502C206.045 2.51266 207.245 2.018 208.663 2.018C210.082 2.018 211.281 2.51266 212.261 3.502C213.251 4.482 213.745 5.68133 213.745 7.1C213.745 8.50933 213.251 9.70866 212.261 10.698ZM205.961 9.816C206.689 10.544 207.59 10.908 208.663 10.908C209.737 10.908 210.633 10.544 211.351 9.816C212.079 9.07866 212.443 8.17333 212.443 7.1C212.443 6.01733 212.079 5.112 211.351 4.384C210.633 3.64667 209.737 3.278 208.663 3.278C207.59 3.278 206.689 3.64667 205.961 4.384C205.243 5.112 204.883 6.01733 204.883 7.1C204.883 8.17333 205.243 9.07866 205.961 9.816Z" fill="url(#paint22_linear_205_1231)"/>
<path d="M222.437 12H220.841L216.613 7.296V12H215.311V2.2H216.613V6.624L220.701 2.2H222.297L217.971 6.96L222.437 12Z" fill="url(#paint23_linear_205_1231)"/>
<path d="M234.278 10.768H235.328V13.876H234.026V12H227.558V13.876H226.256V10.768H227.11C227.717 10.012 228.02 8.864 228.02 7.324V2.2H234.278V10.768ZM228.58 10.768H232.976V3.418H229.322V7.352C229.322 8.836 229.075 9.97466 228.58 10.768Z" fill="url(#paint24_linear_205_1231)"/>
<path d="M242.892 2.2H244.18V12H242.892V7.59H238.132V12H236.83V2.2H238.132V6.358H242.892V2.2Z" fill="url(#paint25_linear_205_1231)"/>
<path d="M252.871 2.2V12H251.583V8.248H249.637L247.104 12H245.633L248.237 8.164C247.565 8.00533 247.01 7.65066 246.571 7.1C246.133 6.54933 245.913 5.92867 245.913 5.238C245.913 4.398 246.207 3.684 246.795 3.096C247.393 2.49866 248.111 2.2 248.951 2.2H252.871ZM248.951 7.072H251.583V3.418H248.951C248.475 3.418 248.065 3.59533 247.719 3.95C247.374 4.30466 247.201 4.734 247.201 5.238C247.201 5.742 247.374 6.176 247.719 6.54C248.065 6.89467 248.475 7.072 248.951 7.072Z" fill="url(#paint26_linear_205_1231)"/>
<defs>
<linearGradient id="paint0_linear_205_1231" x1="-108" y1="19.9999" x2="278.5" y2="-6.00012" gradientUnits="userSpaceOnUse">
<stop stop-color="#030303"/>
<stop offset="1" stop-color="#EDEDED"/>
</linearGradient>
<linearGradient id="paint1_linear_205_1231" x1="-108" y1="19.9999" x2="278.5" y2="-6.00012" gradientUnits="userSpaceOnUse">
<stop stop-color="#030303"/>
<stop offset="1" stop-color="#EDEDED"/>
</linearGradient>
<linearGradient id="paint2_linear_205_1231" x1="-108" y1="19.9999" x2="278.5" y2="-6.00012" gradientUnits="userSpaceOnUse">
<stop stop-color="#030303"/>
<stop offset="1" stop-color="#EDEDED"/>
</linearGradient>
<linearGradient id="paint3_linear_205_1231" x1="-108" y1="19.9999" x2="278.5" y2="-6.00012" gradientUnits="userSpaceOnUse">
<stop stop-color="#030303"/>
<stop offset="1" stop-color="#EDEDED"/>
</linearGradient>
<linearGradient id="paint4_linear_205_1231" x1="-108" y1="19.9999" x2="278.5" y2="-6.00012" gradientUnits="userSpaceOnUse">
<stop stop-color="#030303"/>
<stop offset="1" stop-color="#EDEDED"/>
</linearGradient>
<linearGradient id="paint5_linear_205_1231" x1="-108" y1="19.9999" x2="278.5" y2="-6.00012" gradientUnits="userSpaceOnUse">
<stop stop-color="#030303"/>
<stop offset="1" stop-color="#EDEDED"/>
</linearGradient>
<linearGradient id="paint6_linear_205_1231" x1="-108" y1="19.9999" x2="278.5" y2="-6.00012" gradientUnits="userSpaceOnUse">
<stop stop-color="#030303"/>
<stop offset="1" stop-color="#EDEDED"/>
</linearGradient>
<linearGradient id="paint7_linear_205_1231" x1="-108" y1="19.9999" x2="278.5" y2="-6.00012" gradientUnits="userSpaceOnUse">
<stop stop-color="#030303"/>
<stop offset="1" stop-color="#EDEDED"/>
</linearGradient>
<linearGradient id="paint8_linear_205_1231" x1="-108" y1="19.9999" x2="278.5" y2="-6.00012" gradientUnits="userSpaceOnUse">
<stop stop-color="#030303"/>
<stop offset="1" stop-color="#EDEDED"/>
</linearGradient>
<linearGradient id="paint9_linear_205_1231" x1="-108" y1="19.9999" x2="278.5" y2="-6.00012" gradientUnits="userSpaceOnUse">
<stop stop-color="#030303"/>
<stop offset="1" stop-color="#EDEDED"/>
</linearGradient>
<linearGradient id="paint10_linear_205_1231" x1="-108" y1="19.9999" x2="278.5" y2="-6.00012" gradientUnits="userSpaceOnUse">
<stop stop-color="#030303"/>
<stop offset="1" stop-color="#EDEDED"/>
</linearGradient>
<linearGradient id="paint11_linear_205_1231" x1="-108" y1="19.9999" x2="278.5" y2="-6.00012" gradientUnits="userSpaceOnUse">
<stop stop-color="#030303"/>
<stop offset="1" stop-color="#EDEDED"/>
</linearGradient>
<linearGradient id="paint12_linear_205_1231" x1="-108" y1="19.9999" x2="278.5" y2="-6.00012" gradientUnits="userSpaceOnUse">
<stop stop-color="#030303"/>
<stop offset="1" stop-color="#EDEDED"/>
</linearGradient>
<linearGradient id="paint13_linear_205_1231" x1="-108" y1="19.9999" x2="278.5" y2="-6.00012" gradientUnits="userSpaceOnUse">
<stop stop-color="#030303"/>
<stop offset="1" stop-color="#EDEDED"/>
</linearGradient>
<linearGradient id="paint14_linear_205_1231" x1="-108" y1="19.9999" x2="278.5" y2="-6.00012" gradientUnits="userSpaceOnUse">
<stop stop-color="#030303"/>
<stop offset="1" stop-color="#EDEDED"/>
</linearGradient>
<linearGradient id="paint15_linear_205_1231" x1="-108" y1="19.9999" x2="278.5" y2="-6.00012" gradientUnits="userSpaceOnUse">
<stop stop-color="#030303"/>
<stop offset="1" stop-color="#EDEDED"/>
</linearGradient>
<linearGradient id="paint16_linear_205_1231" x1="-108" y1="19.9999" x2="278.5" y2="-6.00012" gradientUnits="userSpaceOnUse">
<stop stop-color="#030303"/>
<stop offset="1" stop-color="#EDEDED"/>
</linearGradient>
<linearGradient id="paint17_linear_205_1231" x1="-108" y1="19.9999" x2="278.5" y2="-6.00012" gradientUnits="userSpaceOnUse">
<stop stop-color="#030303"/>
<stop offset="1" stop-color="#EDEDED"/>
</linearGradient>
<linearGradient id="paint18_linear_205_1231" x1="-108" y1="19.9999" x2="278.5" y2="-6.00012" gradientUnits="userSpaceOnUse">
<stop stop-color="#030303"/>
<stop offset="1" stop-color="#EDEDED"/>
</linearGradient>
<linearGradient id="paint19_linear_205_1231" x1="-108" y1="19.9999" x2="278.5" y2="-6.00012" gradientUnits="userSpaceOnUse">
<stop stop-color="#030303"/>
<stop offset="1" stop-color="#EDEDED"/>
</linearGradient>
<linearGradient id="paint20_linear_205_1231" x1="-108" y1="19.9999" x2="278.5" y2="-6.00012" gradientUnits="userSpaceOnUse">
<stop stop-color="#030303"/>
<stop offset="1" stop-color="#EDEDED"/>
</linearGradient>
<linearGradient id="paint21_linear_205_1231" x1="-108" y1="19.9999" x2="278.5" y2="-6.00012" gradientUnits="userSpaceOnUse">
<stop stop-color="#030303"/>
<stop offset="1" stop-color="#EDEDED"/>
</linearGradient>
<linearGradient id="paint22_linear_205_1231" x1="-108" y1="19.9999" x2="278.5" y2="-6.00012" gradientUnits="userSpaceOnUse">
<stop stop-color="#030303"/>
<stop offset="1" stop-color="#EDEDED"/>
</linearGradient>
<linearGradient id="paint23_linear_205_1231" x1="-108" y1="19.9999" x2="278.5" y2="-6.00012" gradientUnits="userSpaceOnUse">
<stop stop-color="#030303"/>
<stop offset="1" stop-color="#EDEDED"/>
</linearGradient>
<linearGradient id="paint24_linear_205_1231" x1="-108" y1="19.9999" x2="278.5" y2="-6.00012" gradientUnits="userSpaceOnUse">
<stop stop-color="#030303"/>
<stop offset="1" stop-color="#EDEDED"/>
</linearGradient>
<linearGradient id="paint25_linear_205_1231" x1="-108" y1="19.9999" x2="278.5" y2="-6.00012" gradientUnits="userSpaceOnUse">
<stop stop-color="#030303"/>
<stop offset="1" stop-color="#EDEDED"/>
</linearGradient>
<linearGradient id="paint26_linear_205_1231" x1="-108" y1="19.9999" x2="278.5" y2="-6.00012" gradientUnits="userSpaceOnUse">
<stop stop-color="#030303"/>
<stop offset="1" stop-color="#EDEDED"/>
</linearGradient>
</defs>
</svg>
