<svg width="48" height="48" viewBox="0 0 48 48" fill="none" xmlns="http://www.w3.org/2000/svg">
<path d="M24.5 21.4074C22.4289 21.4074 20.75 19.7492 20.75 17.7037C20.75 15.6582 22.4289 14 24.5 14C26.5711 14 28.25 15.6582 28.25 17.7037C28.2476 19.7482 26.5701 21.405 24.5 21.4074ZM24.5 15.4815C23.2574 15.4815 22.25 16.4764 22.25 17.7037C22.25 18.931 23.2574 19.9259 24.5 19.9259C25.7426 19.9259 26.75 18.931 26.75 17.7037C26.7486 16.477 25.7421 15.4828 24.5 15.4815Z" fill="#EDEDED"/>
<path d="M24.5 34C22.9433 33.989 21.3915 33.8257 19.8674 33.5124C19.603 33.4555 19.3901 33.2623 19.3103 33.0069C19.2306 32.7514 19.2964 32.4734 19.4825 32.2793C19.6686 32.0852 19.9461 32.0052 20.2087 32.07C21.6212 32.3558 23.0583 32.506 24.5 32.5185C26.282 32.5177 29.3413 32.2183 30.5 31.4316V30.2963C30.5 27.0235 27.8137 24.3703 24.5 24.3703C21.1863 24.3703 18.5 27.0235 18.5 30.2963V31.7777C18.5 32.1868 18.1642 32.5185 17.75 32.5185C17.3358 32.5185 17 32.1868 17 31.7777V30.2963C17 26.2053 20.3579 22.8889 24.5 22.8889C28.6421 22.8889 32 26.2053 32 30.2963V31.7777C32 31.9742 31.9209 32.1626 31.7803 32.3014C30.1089 33.9522 25.0691 34 24.5 34Z" fill="#EDEDED"/>
</svg>
