<svg width="16" height="20" viewBox="0 0 16 20" fill="none" xmlns="http://www.w3.org/2000/svg">
<path d="M7.99991 11.2133C6.09684 11.2156 4.457 9.87044 4.08273 8.00001C4.05345 7.80663 4.11037 7.61012 4.2384 7.46252C4.36644 7.31492 4.55268 7.23113 4.74779 7.23335C5.07511 7.22858 5.35723 7.4633 5.41284 7.78668C5.671 9.02187 6.75758 9.90653 8.01654 9.90653C9.2755 9.90653 10.3621 9.02187 10.6202 7.78668C10.6759 7.4633 10.958 7.22858 11.2853 7.23335C11.4804 7.23113 11.6666 7.31492 11.7947 7.46252C11.9227 7.61012 11.9796 7.80663 11.9503 8.00001C11.5737 9.88281 9.91546 11.2316 7.99991 11.2133Z" fill="#EDEDED"/>
<path d="M13.9189 20H2.08092C1.53402 20.0006 1.01082 19.7763 0.633646 19.3793C0.256475 18.9823 0.058405 18.4475 0.0857504 17.9L0.624446 6.40662C0.670769 5.33604 1.55061 4.49228 2.61961 4.49329H13.3802C14.4492 4.49228 15.3291 5.33604 15.3754 6.40662L15.9141 17.9C15.9414 18.4475 15.7434 18.9823 15.3662 19.3793C14.989 19.7763 14.4658 20.0006 13.9189 20ZM2.61961 5.83329C2.25231 5.83329 1.95456 6.13176 1.95456 6.49995L1.41586 17.9666C1.40675 18.1491 1.47277 18.3274 1.59849 18.4597C1.72422 18.5921 1.89862 18.6668 2.08092 18.6666H13.9189C14.1012 18.6668 14.2756 18.5921 14.4013 18.4597C14.5271 18.3274 14.5931 18.1491 14.584 17.9666L14.0453 6.47329C14.0453 6.1051 13.7475 5.80662 13.3802 5.80662L2.61961 5.83329Z" fill="#EDEDED"/>
<path d="M11.9904 5.16667H10.6603V4C10.6603 2.52724 9.4693 1.33333 8.0001 1.33333C6.5309 1.33333 5.33988 2.52724 5.33988 4V5.16667H4.00977V4C4.00977 1.79086 5.7963 0 8.0001 0C10.2039 0 11.9904 1.79086 11.9904 4V5.16667Z" fill="#EDEDED"/>
</svg>
